<svg xmlns="http://www.w3.org/2000/svg" id="abfdf732-5aa6-4939-9f7b-cdfe8c20c7f0" width="1167.82" height="822.655" data-name="Layer 1" viewBox="0 0 1167.82 822.655"><path fill="#f2f2f2" d="M680.10481,173.29892V590.28826a18.6936,18.6936,0,0,1-18.6936,18.6936H60.58391a13.17729,13.17729,0,0,1-13.17728-13.17724V224.7995A84.83638,84.83638,0,0,1,132.243,139.96312H646.769A33.33583,33.33583,0,0,1,680.10481,173.29892Z" transform="translate(-16.09021 -38.6727)"/><path fill="#2f2e41" d="M456.97227,512.82933a217.01548,217.01548,0,0,1-22.3059,96.15247H60.58391a13.17729,13.17729,0,0,1-13.17728-13.17725V408.72039c57.47665-105.796,189.8353-144.96662,295.63132-87.49a218.005,218.005,0,0,1,113.93432,191.599Z" transform="translate(-16.09021 -38.6727)"/><path fill="#3f3d56" d="M680.10481,478.03826v112.25a18.6936,18.6936,0,0,1-18.6936,18.6936H59.75539a13.08268,13.08268,0,0,1-13.0827-13.0788v-.133c0-93.49548,290.799-173.24335,373.48278-204.21033a218.25974,218.25974,0,0,1,259.9494,86.47855Z" transform="translate(-16.09021 -38.6727)"/><circle cx="581.016" cy="268.411" r="54.315" fill="#ff6584" transform="matrix(0.16018, -0.98709, 0.98709, 0.16018, 206.9124, 760.25771)"/><path fill="#6c63ff" d="M297.45167,280.87316c0,105.94885-62.98489,142.9422-140.68072,142.9422S16.09021,386.822,16.09021,280.87316,156.771,40.14068,156.771,40.14068,297.45167,174.92432,297.45167,280.87316Z" transform="translate(-16.09021 -38.6727)"/><polygon fill="#3f3d56" points="135.556 368.936 136.997 280.266 196.958 170.569 137.222 266.356 137.87 226.487 179.195 147.122 138.042 215.936 138.042 215.936 139.206 144.229 183.459 81.045 139.39 132.953 140.118 1.468 135.543 175.531 135.919 168.35 90.928 99.484 135.198 182.134 131.006 262.219 130.881 260.093 79.014 187.621 130.724 267.603 130.2 277.618 130.106 277.769 130.149 278.591 119.513 481.772 133.723 481.772 135.428 376.825 187.011 297.04 135.556 368.936"/><path fill="#6c63ff" d="M526.8296,232.31635c0,85.22456-50.66464,114.9818-113.16265,114.9818s-113.16266-29.75724-113.16266-114.9818S413.667,38.6727,413.667,38.6727,526.8296,147.09179,526.8296,232.31635Z" transform="translate(-16.09021 -38.6727)"/><polygon fill="#3f3d56" points="393.454 295.589 394.613 224.263 442.846 136.024 394.795 213.075 395.316 181.004 428.558 117.163 395.454 172.517 395.454 172.517 396.391 114.836 431.987 64.011 396.538 105.766 397.124 0 393.444 140.015 393.747 134.239 357.556 78.843 393.166 145.327 389.794 209.746 389.694 208.036 347.972 149.74 389.567 214.077 389.146 222.133 389.07 222.254 389.105 222.916 380.549 386.353 391.98 386.353 393.351 301.935 434.845 237.756 393.454 295.589"/><path fill="#6c63ff" d="M759.9601,352.53789c0,57.37631-34.10932,77.41-76.18531,77.41s-76.18524-20.03367-76.18524-77.41,76.18531-130.368,76.18531-130.368S759.9601,295.16158,759.9601,352.53789Z" transform="translate(-16.09021 -38.6727)"/><polygon fill="#3f3d56" points="664.909 382.498 665.689 334.48 698.161 275.073 665.812 326.947 666.162 305.355 688.542 262.376 666.255 299.642 666.255 299.642 666.886 260.809 690.851 226.592 666.985 254.703 667.38 183.497 664.902 277.76 665.106 273.872 640.741 236.577 664.715 281.337 662.445 324.706 662.377 323.555 634.289 284.308 662.292 327.622 662.008 333.045 661.958 333.127 661.981 333.572 656.221 443.604 663.917 443.604 664.84 386.771 692.775 343.563 664.909 382.498"/><path fill="#6c63ff" d="M198.32187,458.39977c-3.37171,5.37839-7.74636,5.25189-11.69051,2.7793s-5.96426-6.355-2.59254-11.73334,14.80258-7.74356,14.80258-7.74356S201.69359,453.02135,198.32187,458.39977Z" transform="translate(-16.09021 -38.6727)"/><path fill="#6c63ff" d="M93.3615,473.07952c-3.37171,5.37838-7.74636,5.25189-11.69051,2.77932s-5.96427-6.355-2.59255-11.73333S93.881,456.382,93.881,456.382,96.73321,467.70113,93.3615,473.07952Z" transform="translate(-16.09021 -38.6727)"/><path fill="#6c63ff" d="M465.452,447.20726c.62393,6.31714-2.91364,8.89377-7.54623,9.35132s-8.60587-1.37723-9.2298-7.69436,6.9703-15.182,6.9703-15.182S464.828,440.89013,465.452,447.20726Z" transform="translate(-16.09021 -38.6727)"/><path fill="#6c63ff" d="M344.3856,368.85314c-3.3717,5.37839-7.74636,5.25189-11.69052,2.77929s-5.96426-6.355-2.59253-11.73333,14.80259-7.74353,14.80259-7.74353S347.75734,363.47475,344.3856,368.85314Z" transform="translate(-16.09021 -38.6727)"/><path fill="#6c63ff" d="M623.30128,451.79387c-3.3717,5.37839-7.74633,5.25189-11.69049,2.77933s-5.96423-6.355-2.59253-11.73334,14.80262-7.74356,14.80262-7.74356S626.673,446.41545,623.30128,451.79387Z" transform="translate(-16.09021 -38.6727)"/><path fill="#f2f2f2" d="M1096.96,532.32726c0,176.17883-79.99183,315.16327-178.5,319-128.46253,5.00342-296.35675-123.08576-178.5-319,90.81781-150.96723,79.91717-319,178.5-319S1096.96,356.14843,1096.96,532.32726Z" transform="translate(-16.09021 -38.6727)"/><path fill="#6c63ff" d="M1061.44964,578.85231c-61.38644,12.81772-90.44027-19.20012-99.83988-64.21684s4.41432-85.98548,65.80076-98.80321,156.49927,52.38613,156.49927,52.38613S1122.83609,566.03458,1061.44964,578.85231Z" transform="translate(-16.09021 -38.6727)"/><polygon fill="#3f3d56" points="954.29 471.032 1005.839 461.14 1076.651 482.611 1013.926 459.588 1037.104 455.14 1088.087 469.482 1043.238 453.963 1043.238 453.963 1084.925 445.963 1126.888 463.959 1091.481 444.705 1167.752 429.219 1066.346 447.627 1070.552 446.976 1105.01 412.577 1062.478 448.226 1015.571 455.486 1016.787 455.156 1052.502 416.337 1012.418 455.973 1006.551 456.882 1006.452 456.845 1005.981 456.97 886.972 475.388 888.691 483.622 949.703 471.913 1002.171 492.148 954.29 471.032"/><path fill="#ffb6b6" d="M921.02122,523.24573a13.2712,13.2712,0,0,1-2.7636-21.88794l5.76021-119.99545a10.63642,10.63642,0,1,1,21.11669,2.56529l-7.26162,119.87a12.80856,12.80856,0,0,1,1.0087,1.68257,13.286,13.286,0,0,1-6.51046,18.02927h0A13.2986,13.2986,0,0,1,921.02122,523.24573Z" transform="translate(-16.09021 -38.6727)"/><path fill="#ff6584" d="M943.0996,436.14667l-23.70215-3.09179-.12646-.16993c-1.05762-1.42285-25.8396-35.02441-20.16822-50.30908,2.26758-6.11084,9.91846-10.38867,22.74-12.71484a20.35952,20.35952,0,0,1,24.01563,19.88867,335.19686,335.19686,0,0,1-2.69067,45.90576Z" transform="translate(-16.09021 -38.6727)"/><ellipse cx="851.87" cy="805.655" fill="#3f3d56" rx="159" ry="17"/><polygon fill="#ffb6b6" points="840.408 780.988 823.537 780.987 815.511 715.914 840.411 715.915 840.408 780.988"/><path fill="#2f2e41" d="M865.57382,851.69468H853.60249l-2.13683-11.30235-5.47274,11.30235H814.2421a7.13729,7.13729,0,0,1-4.05565-13.01062l25.35527-17.51127V809.7465l26.66932,1.59179Z" transform="translate(-16.09021 -38.6727)"/><polygon fill="#ffb6b6" points="917.954 767.627 902.179 773.606 871.609 715.602 894.893 706.777 917.954 767.627"/><path fill="#2f2e41" d="M953.88514,833.03715,942.691,837.2802l-6.00405-9.81125-1.11151,12.50834-29.68959,11.25358a7.1373,7.1373,0,0,1-8.40378-10.72853l17.50264-25.36122-4.04987-10.68451,25.50216-7.96406Z" transform="translate(-16.09021 -38.6727)"/><path fill="#6c63ff" d="M967.452,700.20726c.6239,6.31714-2.9137,8.8938-7.5462,9.35132s-8.60584-1.37719-9.2298-7.69439,6.97034-15.182,6.97034-15.182S966.82808,693.89013,967.452,700.20726Z" transform="translate(-16.09021 -38.6727)"/><path fill="#6c63ff" d="M933.36153,621.07952c-3.37171,5.37842-7.74634,5.25189-11.6905,2.77929s-5.96423-6.355-2.59252-11.73333,14.80261-7.74353,14.80261-7.74353S936.73323,615.7011,933.36153,621.07952Z" transform="translate(-16.09021 -38.6727)"/><path fill="#2f2e41" d="M890.70308,648.13213s73.85657,116.28168,65.68158,121.49676-74.42035,25.65247-80.34015,21.565-10.712-137.84674-10.712-137.84674Z" transform="translate(-16.09021 -38.6727)"/><path fill="#2f2e41" d="M845.67235,468.58661c10.853.42286,55.46084,6.88478,54.47421,8.57616a35.63213,35.63213,0,0,1-3.24176,4.22842s2.25519,10.28919,1.26855,11.27582,19.30982,24.243,7.47022,74.1384-10.571,84.42761-10.571,84.42761,4.79224,146.30359-8.8797,149.26349-67.51391.98663-70.051-4.79224S823.894,610.49913,823.894,610.49913s1.12756-90.20642,3.8056-101.20037S838.96355,468.43766,845.67235,468.58661Z" transform="translate(-16.09021 -38.6727)"/><circle cx="882.013" cy="272.383" r="33.968" fill="#ffb6b6"/><path fill="#ff6584" d="M932.14174,357.0754c4.79223,4.7922,25.51153,24.52487,2.9599,59.47989s-36.92822,60.32556-36.92822,60.32556l-56.09717-6.62454L850.674,436.147s-4.2284-26.921,10.14825-40.311,30.16278-35.37784,30.16278-35.37784l8.14105-1.48715S927.3495,352.28319,932.14174,357.0754Z" transform="translate(-16.09021 -38.6727)"/><path fill="#ffb6b6" d="M915.228,407.53463s-79.21252,61.0303-84.28668,39.60626c-3.29773-13.92362.55082-66.25563,2.73105-88.55428l16.015.18019s-3.38275,49.19071,3.38275,54.82862c0,0,24.51044-23.66724,29.5918-23.32086S915.228,407.53463,915.228,407.53463Z" transform="translate(-16.09021 -38.6727)"/><path fill="#ff6584" d="M932.14168,369.47881s-10.75607,49.93285-42.46933,58.1078l-37-15s47.05136-50.15519,63.26034-50.719S932.14168,369.47881,932.14168,369.47881Z" transform="translate(-16.09021 -38.6727)"/><circle cx="826.582" cy="314.914" r="13" fill="#ffb6b6"/><path fill="#2f2e41" d="M944.99048,318.93286c-.09741-8.41339-.20581-16.9201-2.1402-25.07483s-5.90137-16.04944-12.32666-20.8855c-6.42523-4.83606-15.55212-6.00207-22.16132-1.45953-4.925-6.34454-13.44061-8.76929-20.97369-7.05432s-14.043,7.113-18.54419,13.80933-7.15967,14.62561-8.96075,22.64941c-.63959,2.84924-.9076,6.48578,1.38525,8.08282,1.79761,1.25214,4.17041.47974,6.178-.32659q8.28387-3.32712,16.56775-6.65418c5.5841,7.63513,13.62909,14.59949,12.52075,24.22534-1.10925,9.634-7.54425,19.759-10.9472,28.75519q7.12132-2.57034,14.24261-5.14081c1.52033-2.53735,5.28839-6.52948,5.0191-9.47827a23.98264,23.98264,0,0,1,2.09675,6.93311c.00177.01941.00109.03918.00274.05859q13.211-4.76844,26.422-9.53687c3.14477-1.13507,6.446-2.37957,8.61755-5.06842C944.949,329.10236,945.04663,323.77954,944.99048,318.93286Z" transform="translate(-16.09021 -38.6727)"/></svg>